:FULLY-SPECIFIED
:FORCE-ALL-JOINTS-BE-3DOF
:DEGREES
918
root -0.205552 14.1221 -36.3354 372.567 -27.2438 343.491
lfemur -63.8681 31.4591 -0.0916852
ltibia 68.8811 0 0
lfoot -6.48863 -9.56967 0
ltoes -9.5512 0 0
rfemur 5.80155 -8.73363 13.3858
rtibia 38.4853 0 0
rfoot -22.3074 -28.5787 0
rtoes -27.6905 0 0
lowerback 11.6011 0.156258 6.74319
upperback -1.58699 1.57352 5.41497
thorax -8.22788 0.57022 1.69815
lowerneck -3.73938 7.72531 2.35593
upperneck 3.72001 10.2086 -0.599806
head 1.95419 5.10891 -0.280499
lclavicle -3.14512e-15 -1.28305e-14 0
lhumerus 13.005 12.4329 71.1051
lradius 15.4527 0 0
lwrist -48.1771 0 0
lhand -30.5061 29.7506 0
lfingers 7.12502 0 0
lthumb -3.80607 59.6903 0
rclavicle -3.14512e-15 -1.28305e-14 0
rhumerus -76.8707 21.7857 -96.816
rradius 110.429 0 0
rwrist -67.4786 0 0
rhand -11.1262 -24.3152 0
rfingers 7.12502 0 0
rthumb 14.8989 -53.7594 0
919
root -0.197836 14.1129 -36.3275 372.54 -27.2332 343.499
lfemur -63.8989 31.4643 -0.117965
ltibia 68.9682 0 0
lfoot -6.54449 -9.56299 0
ltoes -9.59771 0 0
rfemur 5.82888 -8.68661 13.3771
rtibia 38.5137 0 0
rfoot -22.3315 -28.6199 0
rtoes -27.6406 0 0
lowerback 11.5759 0.141734 6.73293
upperback -1.58272 1.5509 5.43993
thorax -8.21005 0.560638 1.73463
lowerneck -3.75068 7.73064 2.38378
upperneck 3.77613 10.2154 -0.624724
head 1.97804 5.11211 -0.290424
lclavicle -5.44181e-15 -1.0104e-14 0
lhumerus 12.7613 11.4294 71.1709
lradius 15.659 0 0
lwrist -46.9687 0 0
lhand -30.2735 29.6302 0
lfingers 7.12502 0 0
lthumb -3.58151 59.5717 0
rclavicle -5.44181e-15 -1.0104e-14 0
rhumerus -76.8668 21.7572 -96.7728
rradius 110.39 0 0
rwrist -67.4874 0 0
rhand -11.1037 -24.341 0
rfingers 7.12502 0 0
rthumb 14.9206 -53.7836 0
920
root -0.190119 14.1037 -36.3197 372.5 -27.2037 343.496
lfemur -63.9747 31.4901 -0.16567
ltibia 69.1236 0 0
lfoot -6.6209 -9.59396 0
ltoes -9.55723 0 0
rfemur 5.88451 -8.63733 13.3644
rtibia 38.5463 0 0
rfoot -22.3581 -28.6693 0
rtoes -27.6063 0 0
lowerback 11.5389 0.116013 6.7307
upperback -1.57398 1.51413 5.48593
thorax -8.18128 0.544501 1.79173
lowerneck -3.76508 7.73907 2.42827
upperneck 3.8569 10.2261 -0.663486
head 2.01246 5.11719 -0.306334
lclavicle -8.26626e-15 -6.14895e-15 0
lhumerus 12.4324 10.0629 71.3144
lradius 15.9104 0 0
lwrist -45.3402 0 0
lhand -29.9123 29.449 0
lfingers 7.12502 0 0
lthumb -3.23259 59.3936 0
rclavicle -8.26626e-15 -6.14895e-15 0
rhumerus -76.8603 21.7174 -96.7044
rradius 110.335 0 0
rwrist -67.4929 0 0
rhand -11.0728 -24.3844 0
rfingers 7.12502 0 0
rthumb 14.9503 -53.8247 0
921
root -0.182403 14.0944 -36.3118 372.445 -27.1489 343.475
lfemur -64.1099 31.5439 -0.24087
ltibia 69.3666 0 0
lfoot -6.72157 -9.67687 0
ltoes -9.39456 0 0
rfemur 5.97698 -8.58822 13.3469
rtibia 38.5827 0 0
rfoot -22.3866 -28.727 0
rtoes -27.5967 0 0
lowerback 11.4874 0.0759779 6.74016
upperback -1.55941 1.45956 5.55897
thorax -8.13878 0.520061 1.87449
lowerneck -3.78295 7.75136 2.4936
upperneck 3.96751 10.2417 -0.719466
head 2.05971 5.1246 -0.329747
lclavicle -1.16542e-14 -7.01503e-16 0
lhumerus 12.004 8.26926 71.5596
lradius 16.2094 0 0
lwrist -43.2203 0 0
lhand -29.3908 29.1928 0
lfingers 7.12502 0 0
lthumb -2.72902 59.1425 0
rclavicle -1.16542e-14 -7.01503e-16 0
rhumerus -76.8503 21.6642 -96.6045
rradius 110.261 0 0
rwrist -67.4932 0 0
rhand -11.0321 -24.4499 0
rfingers 7.12502 0 0
rthumb 14.9896 -53.8874 0
922
root -0.174686 14.0852 -36.304 372.371 -27.0626 343.432
lfemur -64.319 31.6329 -0.349632
ltibia 69.7162 0 0
lfoot -6.8502 -9.82605 0
ltoes -9.0745 0 0
rfemur 6.11481 -8.54169 13.3237
rtibia 38.6223 0 0
rfoot -22.4161 -28.7931 0
rtoes -27.6212 0 0
lowerback 11.4188 0.0185129 6.76498
upperback -1.53767 1.38355 5.66508
thorax -8.07975 0.485566 1.988
lowerneck -3.80465 7.76828 2.58397
upperneck 4.11315 10.2631 -0.796038
head 2.12204 5.13482 -0.362182
lclavicle -1.56414e-14 6.50216e-15 0
lhumerus 11.4615 5.98414 71.9306
lradius 16.5583 0 0
lwrist -40.5379 0 0
lhand -28.678 28.8477 0
lfingers 7.12502 0 0
lthumb -2.04056 58.8046 0
rclavicle -1.56414e-14 6.50216e-15 0
rhumerus -76.8361 21.5954 -96.4666
rradius 110.165 0 0
rwrist -67.4864 0 0
rhand -10.9798 -24.5424 0
rfingers 7.12502 0 0
rthumb 15.0399 -53.9761 0
923
root -0.16697 14.0759 -36.2961 372.276 -26.9386 343.363
lfemur -64.6165 31.7644 -0.498025
ltibia 70.1918 0 0
lfoot -7.0105 -10.0558 0
ltoes -8.56184 0 0
rfemur 6.30653 -8.50015 13.294
rtibia 38.6649 0 0
rfoot -22.446 -28.8678 0
rtoes -27.6888 0 0
lowerback 11.3305 -0.0594992 6.80881
upperback -1.50741 1.28246 5.81027
thorax -8.0014 0.439267 2.1373
lowerneck -3.83053 7.79061 2.70357
upperneck 4.29902 10.2914 -0.896575
head 2.20168 5.1483 -0.405154
lclavicle -2.02635e-14 1.57259e-14 0
lhumerus 10.7905 3.14327 72.4513
lradius 16.9596 0 0
lwrist -37.2217 0 0
lhand -27.7423 28.3996 0
lfingers 7.12502 0 0
lthumb -1.13694 58.3664 0
rclavicle -2.02635e-14 1.57259e-14 0
rhumerus -76.8171 21.5089 -96.2845
rradius 110.045 0 0
rwrist -67.4709 0 0
rhand -10.9146 -24.6664 0
rfingers 7.12502 0 0
rthumb 15.1028 -54.0954 0
924
root -0.159253 14.0667 -36.2883 372.157 -26.7705 343.261
lfemur -65.0167 31.9455 -0.692118
ltibia 70.8123 0 0
lfoot -7.20617 -10.3804 0
ltoes -7.82138 0 0
rfemur 6.56067 -8.46602 13.257
rtibia 38.7099 0 0
rfoot -22.4755 -28.9513 0
rtoes -27.8087 0 0
lowerback 11.2199 -0.161175 6.87532
upperback -1.46727 1.15264 6.00056
thorax -7.90094 0.379414 2.32747
lowerneck -3.86097 7.81912 2.8566
upperneck 4.53031 10.3274 -1.02445
head 2.30088 5.16551 -0.460181
lclavicle -2.55563e-14 2.72335e-14 0
lhumerus 9.97643 -0.317625 73.1459
lradius 17.4155 0 0
lwrist -33.2006 0 0
lhand -26.5525 27.8343 0
lfingers 7.12502 0 0
lthumb 0.0120993 57.8141 0
rclavicle -2.55563e-14 2.72335e-14 0
rhumerus -76.7925 21.4024 -96.0518
rradius 109.896 0 0
rwrist -67.4446 0 0
rhand -10.8348 -24.8267 0
rfingers 7.12502 0 0
rthumb 15.1796 -54.2499 0
925
root -0.14955 14.0591 -36.2759 372.144 -26.7617 343.239
lfemur -65.094 31.9922 -0.733911
ltibia 70.9521 0 0
lfoot -7.22592 -10.4316 0
ltoes -7.60213 0 0
rfemur 6.60788 -8.46986 13.2248
rtibia 38.7105 0 0
rfoot -22.5016 -28.92 0
rtoes -27.8772 0 0
lowerback 11.1957 -0.177904 6.89714
upperback -1.46138 1.13273 6.04727
thorax -7.88196 0.370052 2.36899
lowerneck -3.8654 7.828 2.88033
upperneck 4.59067 10.3395 -1.0493
head 2.32498 5.17129 -0.469454
lclavicle -2.48057e-14 2.60152e-14 0
lhumerus 9.74181 -1.82507 73.3447
lradius 17.8319 0 0
lwrist -31.6749 0 0
lhand -26.2847 27.8005 0
lfingers 7.12502 0 0
lthumb 0.270745 57.78 0
rclavicle -2.48057e-14 2.60152e-14 0
rhumerus -76.805 21.3862 -96.0186
rradius 109.886 0 0
rwrist -67.4515 0 0
rhand -10.8175 -24.845 0
rfingers 7.12502 0 0
rthumb 15.1963 -54.2669 0
926
root -0.139848 14.0515 -36.2635 372.138 -26.7583 343.226
lfemur -65.134 32.0171 -0.75528
ltibia 71.0243 0 0
lfoot -7.23428 -10.4579 0
ltoes -7.48387 0 0
rfemur 6.63152 -8.47337 13.2073
rtibia 38.7101 0 0
rfoot -22.5156 -28.9008 0
rtoes -27.9156 0 0
lowerback 11.1834 -0.18617 6.90919
upperback -1.45847 1.12307 6.07167
thorax -7.87236 0.365484 2.39017
lowerneck -3.8675 7.8326 2.89208
upperneck 4.62186 10.3458 -1.06165
head 2.33735 5.17431 -0.47402
lclavicle -2.43968e-14 2.52107e-14 0
lhumerus 9.62155 -2.62788 73.4519
lradius 18.06 0 0
lwrist -30.8709 0 0
lhand -26.1464 27.7895 0
lfingers 7.12502 0 0
lthumb 0.404277 57.7687 0
rclavicle -2.43968e-14 2.52107e-14 0
rhumerus -76.8121 21.3785 -96.0027
rradius 109.883 0 0
rwrist -67.4558 0 0
rhand -10.8091 -24.8534 0
rfingers 7.12502 0 0
rthumb 15.2043 -54.2747 0
927
root -0.130145 14.0439 -36.2511 372.139 -26.7599 343.22
lfemur -65.1494 32.0285 -0.762919
ltibia 71.0519 0 0
lfoot -7.23286 -10.4675 0
ltoes -7.42595 0 0
rfemur 6.63872 -8.47852 13.1984
rtibia 38.7082 0 0
rfoot -22.5224 -28.8859 0
rtoes -27.9377 0 0
lowerback 11.179 -0.188396 6.91579
upperback -1.45769 1.12096 6.08168
thorax -7.86919 0.364404 2.39762
lowerneck -3.86781 7.83443 2.89529
upperneck 4.63384 10.3483 -1.06515
head 2.34189 5.17554 -0.475205
lclavicle -2.41867e-14 2.44614e-14 0
lhumerus 9.5778 -2.99634 73.5041
lradius 18.1801 0 0
lwrist -30.523 0 0
lhand -26.0936 27.8015 0
lfingers 7.12502 0 0
lthumb 0.45528 57.7803 0
rclavicle -2.41867e-14 2.44614e-14 0
rhumerus -76.8166 21.3775 -95.9999
rradius 109.884 0 0
rwrist -67.4593 0 0
rhand -10.8074 -24.8541 0
rfingers 7.12502 0 0
rthumb 15.206 -54.2753 0
928
root -0.120442 14.0363 -36.2387 372.145 -26.7662 343.216
lfemur -65.1531 32.0347 -0.76352
ltibia 71.0579 0 0
lfoot -7.22325 -10.4687 0
ltoes -7.38771 0 0
rfemur 6.63659 -8.48732 13.192
rtibia 38.7043 0 0
rfoot -22.5268 -28.8675 0
rtoes -27.9577 0 0
lowerback 11.1786 -0.187003 6.92124
upperback -1.4582 1.12368 6.08526
thorax -7.86949 0.365511 2.39794
lowerneck -3.86689 7.83496 2.89341
upperneck 4.63656 10.3492 -1.06346
head 2.34251 5.17596 -0.474337
lclavicle -2.40327e-14 2.34087e-14 0
lhumerus 9.57271 -3.20077 73.5381
lradius 18.2727 0 0
lwrist -30.3652 0 0
lhand -26.0822 27.8369 0
lfingers 7.12502 0 0
lthumb 0.466339 57.8148 0
rclavicle -2.40327e-14 2.34087e-14 0
rhumerus -76.8211 21.3811 -96.0059
rradius 109.891 0 0
rwrist -67.4637 0 0
rhand -10.8098 -24.8493 0
rfingers 7.12502 0 0
rthumb 15.2036 -54.2707 0
929
root -0.11074 14.0287 -36.2263 372.155 -26.7767 343.209
lfemur -65.1578 32.0443 -0.763779
ltibia 71.0653 0 0
lfoot -7.20706 -10.4698 0
ltoes -7.32849 0 0
rfemur 6.63224 -8.50178 13.1821
rtibia 38.6979 0 0
rfoot -22.5335 -28.8376 0
rtoes -27.9894 0 0
lowerback 11.1785 -0.184413 6.92984
upperback -1.45914 1.12852 6.09034
thorax -7.87033 0.367501 2.39776
lowerneck -3.8653 7.83568 2.88989
upperneck 4.63999 10.3503 -1.06023
head 2.34312 5.17655 -0.472742
lclavicle -2.37919e-14 2.16942e-14 0
lhumerus 9.56843 -3.51144 73.5908
lradius 18.4179 0 0
lwrist -30.1318 0 0
lhand -26.068 27.8958 0
lfingers 7.12502 0 0
lthumb 0.480039 57.8724 0
rclavicle -2.37919e-14 2.16942e-14 0
rhumerus -76.8284 21.3874 -96.0164
rradius 109.903 0 0
rwrist -67.4709 0 0
rhand -10.8142 -24.841 0
rfingers 7.12502 0 0
rthumb 15.1994 -54.2626 0
